<?xml version="1.0" encoding="UTF-8"?>
<svg width="119.79mm" height="53.286mm" version="1.1" viewBox="0 0 119.79 53.286" xml:space="preserve" xmlns="http://www.w3.org/2000/svg"><g transform="translate(-29.358 -116.94)"><path d="m143.8 131.2h2.4561v12.645l-2.4561-1.3597z" stroke-width=".31187"/><path d="m129.49 127.64v1.7546h2.7923v10.657c0 0.53603 0.16559 1.0772 0.49695 1.6229 0.33136 0.53601 0.77507 0.97929 1.3306 1.3301 0.56526 0.3411 1.1842 0.51674 1.8566 0.52649 1.3449 0 2.4263-0.35086 3.245-1.0526 0.8284-0.71146 1.4816-1.5984 1.9592-2.6607l-2.9383-1.6811c0 3.0017-0.72639 4.5026-2.1785 4.5026-0.28263 0-0.54566-0.16101-0.78931-0.48262-0.2339-0.32162-0.35056-0.6528-0.35056-0.99391v-11.768h7.0608v-1.7546h-7.0608v-3.0843l-2.6316-1.8275v4.9118z" stroke-width=".31187"/><path d="m114.46 129.4v8.4205c0 1.0233 0.27811 1.9734 0.83362 2.8506 0.56526 0.87713 1.3059 1.5692 2.222 2.076 0.92586 0.50678 1.876 0.7602 2.8506 0.7602 0.67246 0 1.2621-0.0686 1.7689-0.20503 0.50679-0.13644 0.99899-0.34093 1.4765-0.61382 0.47755-0.28262 0.96975-0.60923 1.4765-0.97957v1.1694c0.43857 0.19492 0.99391 0.44375 1.6664 0.74587 0.68221 0.30212 1.1259 0.51163 1.3306 0.62858v-12.455h-2.9678v5.818c0 0.34111-0.0778 0.78983-0.23371 1.3454-0.15594 0.54576-0.41438 1.1107-0.77498 1.6955-0.3606 0.57501-0.8574 1.0672-1.4909 1.4765-0.63349 0.39958-1.4038 0.59948-2.3102 0.59948-0.62374 0-1.1644-0.18526-1.6225-0.5556-0.45806-0.37035-0.80892-0.85752-1.0526-1.4618-0.2339-0.61399-0.36061-1.2622-0.38011-1.9444v-9.3705h11.973-11.973z" stroke-width=".31187"/><path d="m98.662 127.64v14.546l2.7337 1.4618v-5.8036c0-0.76017 0.30694-1.5497 0.92093-2.3684 0.61399-0.81864 1.3692-1.5007 2.2658-2.0465 0.90636-0.54577 1.759-0.83348 2.5582-0.86273 0.85764 0 1.5301 0.32159 2.0174 0.96481 0.48729 0.63349 0.7311 1.4619 0.7311 2.4852-0.01 0.83814-0.14607 1.5934-0.40921 2.2658-0.26314 0.67246-0.56549 1.2332-0.9066 1.6816-0.3411 0.44831-0.73587 0.90119-1.1842 1.3592-0.44831 0.45805-0.74062 0.78466-0.87706 0.97957l2.3975 1.4327c0.24365-0.18517 0.61416-0.52139 1.1112-1.0087 0.49705-0.48729 0.99426-1.1693 1.4913-2.0465 0.49704-0.87713 0.74543-1.8323 0.74543-2.8653 0-0.99408-0.25844-2.0032-0.77497-3.0265-0.51653-1.0233-1.2375-1.8613-2.1633-2.5143-0.91612-0.66272-1.9737-0.99391-3.1724-0.99391-0.63348 0-1.2035 0.0924-1.7102 0.27758-0.50679 0.18517-0.93585 0.40473-1.2867 0.65812-0.35085 0.25339-0.66281 0.52145-0.9357 0.80408-0.27288 0.28263-0.51625 0.54064-0.73066 0.77454v-6.1546c0-1.3449-0.22917-2.7191-0.68723-4.1225-0.45805-1.4132-1.0477-2.6363-1.7689-3.6694-0.71145-1.0428-1.4228-1.7592-2.1342-2.149l-2.9531 0.0295c0.19492 0.12669 0.51148 0.3847 0.95004 0.77454 0.42882 0.38983 0.94068 0.98952 1.5352 1.7984 0.5945 0.80892 1.116 1.8418 1.5643 3.099 0.44831 1.2475 0.67246 2.6605 0.67246 4.2393z" stroke-width=".31187"/><path d="m78.707 116.94c0.31187 0.27289 0.75055 0.76006 1.3158 1.4618 0.55551 0.7017 1.0962 1.5054 1.6225 2.4118 0.52628 0.90636 0.97959 1.9589 1.3597 3.1577 0.38984 1.189 0.58471 2.4122 0.58471 3.6694v14.94l2.5434 1.0964v-2.9965c1.0526 1.072 1.8471 1.8126 2.3831 2.222 0.54577 0.39958 1.1546 0.59947 1.8271 0.59947 0.53602 0 1.1746-0.18525 1.9153-0.5556 0.75043-0.38008 1.4668-0.88234 2.149-1.5061 0.69196-0.63348 1.2573-1.3544 1.6959-2.1633 0.43856-0.81865 0.65768-1.6471 0.65768-2.4852 0-0.56526-0.12671-1.1599-0.3801-1.7836-0.24365-0.62374-0.60412-1.1987-1.0817-1.725-0.4678-0.53603-1.0332-0.96466-1.6959-1.2863-0.66272-0.33137-1.3887-0.49696-2.1781-0.49696-0.76018 0-1.5255 0.2484-2.2954 0.74544-0.76018 0.49704-1.3837 0.99383-1.871 1.4909-0.47755 0.49705-0.81376 0.86757-1.0087 1.1112v-7.2072c0-1.6373-0.17564-3.0892-0.5265-4.3562s-0.77948-2.3438-1.2863-3.2306c-0.50678-0.88687-0.9601-1.5451-1.3597-1.9739-0.39958-0.43856-0.78932-0.81825-1.1694-1.1399zm10.979 16.651c0.76992 0 1.4959 0.17062 2.1781 0.51172 0.69196 0.34111 1.277 0.76013 1.7546 1.2572 0.47755 0.49702 0.84763 1.0135 1.1108 1.5495 0.27288 0.52628 0.40921 0.98921 0.40921 1.3888 0 0.56525-0.12671 1.1357-0.3801 1.7107-0.25339 0.575-0.5942 1.0475-1.023 1.4179-0.41907 0.37034-0.87741 0.5556-1.3745 0.5556-0.86738 0-1.7539-0.3655-2.6603-1.0964-0.90637-0.73093-1.657-1.5886-2.2515-2.573-0.58475-0.99409-0.87706-1.8275-0.87706-2.5 0-0.18518 0.16057-0.45782 0.48219-0.81841 0.32162-0.37035 0.7214-0.69695 1.199-0.97959 0.48729-0.28262 0.96486-0.42397 1.4327-0.42397z" stroke-width=".31187"/><path d="m69.219 129.4h-2.7923v8.4205c0 1.0233 0.2781 1.9734 0.83362 2.8506 0.56526 0.87713 1.3059 1.5692 2.222 2.076 0.92586 0.50678 1.876 0.7602 2.8506 0.7602 0.67246 0 1.2621-0.0686 1.7689-0.20503 0.50679-0.13644 0.99899-0.34093 1.4765-0.61382 0.47755-0.28262 0.96975-0.60923 1.4765-0.97957v1.1694c0.43857 0.19492 0.9939 0.44375 1.6664 0.74587 0.68221 0.30212 1.1259 0.51163 1.3306 0.62858v-12.455h-2.9678v5.818c0 0.34111-0.07777 0.78983-0.23371 1.3454-0.15593 0.54576-0.41438 1.1107-0.77497 1.6955-0.3606 0.57501-0.85739 1.0672-1.4909 1.4765-0.63348 0.39958-1.4034 0.59948-2.3097 0.59948-0.62374 0-1.1649-0.18526-1.6229-0.5556-0.45806-0.37035-0.80891-0.85752-1.0526-1.4618-0.2339-0.61399-0.36061-1.2622-0.3801-1.9444z" stroke-width=".31187"/><path d="m58.343 131.2c0.76992 0 1.5105 0.16559 2.222 0.49696 0.71145 0.33135 1.345 0.79428 1.9005 1.3888 0.55552 0.5945 0.99376 1.2962 1.3154 2.1051 0.32161 0.79917 0.48262 1.6569 0.48262 2.573 0 1.0331-0.22415 2.0906-0.67246 3.1724-0.44831 1.072-1.1596 2.1392-2.1342 3.2016l-2.8214-1.7689c0.17543-0.2339 0.5016-0.57514 0.97914-1.0234 0.47755-0.44832 0.89656-0.90163 1.2572-1.3597 0.3606-0.46781 0.66798-1.0428 0.92137-1.725 0.25339-0.69195 0.3801-1.5057 0.3801-2.4413 0-2.339-1.1065-3.5082-3.3188-3.5082-0.64323 0-1.3056 0.18984-1.9878 0.56994-0.67246 0.38009-1.2767 0.90615-1.8128 1.5786-0.52628 0.67246-0.95534 1.472-1.2867 2.3979-0.32161 0.92586-0.48219 1.8856-0.48219 2.8797v4.2541l-2.3975-1.2572v-10.993h2.5143v1.7398c0.20466-0.15593 0.54088-0.4194 1.0087-0.78974 0.47755-0.37035 1.0525-0.71115 1.725-1.023 0.68221-0.31187 1.4182-0.46785 2.2076-0.46785z" stroke-width=".31187"/><path d="m48.178 143.92h-2.7968l-2.2856-6.0447h-9.1423l-2.1502 6.0447h-1.8705l8.2701-21.563h1.675zm-5.9094-8.3152-3.3832-9.1874c-0.11027-0.30073-0.22054-0.78191-0.3308-1.4435h-0.06015c-0.10024 0.61149-0.21552 1.0927-0.34584 1.4435l-3.3532 9.1874z" stroke="#000" stroke-width=".791" style="paint-order:markers fill stroke" aria-label="A"/></g><g transform="translate(-29.358 -116.94)"><text transform="matrix(1.0943 -.0019424 0 .91379 0 0)" x="79.636215" y="170.07767" fill="#000000" font-family="PMingLiU-ExtB" font-size="15.666px" stroke-width=".37005" xml:space="preserve"><tspan x="79.636215" y="170.07767" fill="#000000" font-family="PMingLiU-ExtB" font-size="15.666px" stroke-width=".37005">Analytics</tspan></text></g><g transform="translate(-29.358 -116.94)"><text x="73.155151" y="168.91164" fill="#000000" font-family="PMingLiU-ExtB" font-size="6.6185px" stroke="#000000" stroke-width="0" style="paint-order:markers fill stroke" xml:space="preserve"><tspan x="73.155151" y="168.91164" font-family="PMingLiU-ExtB" font-size="6.6185px" stroke-width="0">Delivering Impactful Services</tspan></text></g><g transform="translate(-29.358 -116.94)"><g transform="matrix(.030588 0 0 .030588 125.26 113.27)" stroke-width=".79984"><path d="m776.79 310.15q-27.842 69.698-42.863 106.68-1.2798 3.1434-4.911 3.7912c-43.927 7.8304-87.814 15.797-131.76 23.523a1.1678 1.1598 65.7 0 1-1.1118-0.42391l-83.343-106.81a2.7035 2.7354 21.7 0 1-0.53589-1.2637c-0.61587-4.1912-0.032-7.5025 1.6477-11.694q22.156-55.485 44.143-111.04 0.62387-1.5677 1.6157-2.8874 0.24795-0.32793 0.65587-0.43991c43.679-11.758 87.27-23.819 131.08-35.105q1.7277-0.44791 3.1514 0.096 3.6472 1.3917 5.6788 4.2871 39.552 56.62 79.216 113.17c3.8152 5.4389-0.4719 12.629-2.6634 18.116zm-163.49-86.55a1.0478 1.0478 0 0 0 0.12797 1.9276l116.24 38.856a1.0478 1.0478 0 0 0 1.2638-1.4637l-38.904-77.336a1.0478 1.0478 0 0 0-1.4077-0.4719zm-31.866-8.3583c6.0868 1.2398 11.398 4.0952 17.588 4.775q0.4639 0.048 0.87982-0.15997l45.111-22.715q0.7918-0.39991-0.088-0.66386-0.04-0.016-0.5039 0.11198-28.906 7.7904-57.812 15.597-2.9674 0.79984-5.3109 2.3515a0.39192 0.38392 34.2 0 0 0.13598 0.70385zm-15.541 5.079c-10.91 26.139-21.62 52.565-31.682 79.12q-0.16797 0.43991-0.056 0.73585a0.27994 0.27994 0 0 0 0.4799 0.072q26.811-34.441 53.493-68.658 1.0078-1.3037 1.9516-2.8234 0.52789-0.85582-0.42392-1.1758l-22.875-7.6704q-0.63188-0.21595-0.88782 0.39992zm161.71 53.157c-39.688-13.093-79.256-26.611-119.02-39.472q-1.2158-0.39192-2.4795-0.33593-0.43991 0.024-0.31994 0.4479l30.826 112.24q0.4799 1.7276 1.8956 0.62387 45.127-35.121 89.454-69.546 0.8398-0.64786 1.3517-1.6397a0.88782 0.88782 0 0 0 0.032-0.75185q-0.4719-1.1518-1.7356-1.5677zm-101.02 76.512a0.67186 0.67186 0 0 0 0.77585-0.83183l-30.33-111.82a0.67186 0.67186 0 0 0-1.1758-0.23995l-71.154 91.213a0.67186 0.67186 0 0 0 0.39992 1.0718zm103.57-110.09c3.5993 9.71 9.0862 19.196 13.821 28.418a4.4871 4.4871 0 0 0 1.2718 1.5197q4.911 3.7432 10.166 6.9746 1.7916 1.1038 0.6159-0.64787c-2.3995-3.5593-4.759-7.4625-7.1666-10.894q-9.2381-13.173-18.084-25.699-1.5677-2.2155-0.6239 0.32794zm7.7905 141.08 32.753-81.607a0.68786 0.69586 27.8 0 0-0.2559-0.83183l-24.523-16.421a0.34393 0.35193 21.2 0 0-0.5359 0.23995q-0.5278 3.2074-0.8158 6.5107-3.8792 45.287-7.7904 90.566-0.096 1.1118 0.176 1.6077 0.5598 1.0078 0.9918-0.064zm-13.101 25.747a0.57588 0.57588 0 0 0 0.7919-0.4879q0.7918-10.174 1.5756-20.572 3.7673-50.35 8.4303-101a0.45591 0.45591 0 0 0-0.7358-0.39992c-2.0876 1.5997-4.4791 3.0874-6.4627 4.6311q-41.608 32.353-84.711 65.955-0.4639 0.36792-0.12 0.84783 0.8559 1.1678 2.4076 2.1356 37.624 23.451 75.145 47.062 1.5117 0.95181 3.6792 1.8236zm-126.29 20.732 28.77-66.93a0.62387 0.63187 17.3 0 0-0.44791-0.86383q-47.51-9.734-95.269-19.076-1.4557-0.28794-2.8474-0.10398a0.23995 0.23995 0 0 0-0.15997 0.38392c21.796 28.714 44.039 57.004 66.123 85.479q0.95981 1.2318 1.9116 1.7676a1.3677 1.3597 26 0 0 1.9196-0.65587zm10.718-1.0958q-1.3197 3.0794-2.4315 6.0388a0.31993 0.31194 5.5 0 0 0.35193 0.42391l107.23-19.316a0.35993 0.35993 0 0 0 0.264-0.4879q-0.4959-1.2078-1.7117-1.9836-37.56-23.763-75.433-47.03-0.3439-0.21596-0.6479 0.056-1.4157 1.2637-1.9756 2.5675-12.789 29.882-25.643 59.732z" fill="#0dbf65"/><path d="m613.3 223.6 77.32-38.488a1.0478 1.0478 0 0 1 1.4077 0.4719l38.904 77.336a1.0478 1.0478 0 0 1-1.2638 1.4637l-116.24-38.856a1.0478 1.0478 0 0 1-0.12797-1.9276z" fill="#fff"/><path d="m599.02 220.01c-6.1907-0.67986-11.502-3.5353-17.588-4.775a0.39192 0.38392 34.2 0 1-0.13598-0.70385q2.3435-1.5517 5.3109-2.3515 28.906-7.8064 57.812-15.597 0.4639-0.12798 0.5039-0.11198 0.8798 0.26395 0.088 0.66386l-45.111 22.715q-0.41592 0.20796-0.87982 0.15997z" fill="#fff"/><path d="m534.21 299.44c10.062-26.555 20.772-52.981 31.682-79.12q0.25594-0.61587 0.88782-0.39992l22.875 7.6704q0.95181 0.31994 0.42392 1.1758-0.94381 1.5197-1.9516 2.8234-26.683 34.217-53.493 68.658a0.27994 0.27994 0 0 1-0.4799-0.072q-0.11198-0.29594 0.056-0.73585z" fill="#fff"/><path d="m608.58 234c39.768 12.861 79.336 26.379 119.02 39.472q1.2637 0.41591 1.7356 1.5677a0.88782 0.88782 0 0 1-0.032 0.75185q-0.5119 0.9918-1.3517 1.6397-44.327 34.425-89.454 69.546-1.4157 1.1038-1.8956-0.62387l-30.826-112.24q-0.11997-0.42391 0.31994-0.4479 1.2637-0.056 2.4795 0.33593z" fill="#fff"/><path d="m626.58 349.99-101.48-20.604a0.67186 0.67186 0 0 1-0.39992-1.0718l71.154-91.213a0.67186 0.67186 0 0 1 1.1758 0.23995l30.33 111.82a0.67186 0.67186 0 0 1-0.77585 0.83183z" fill="#fff"/><path d="m743.98 268.32c-4.735-9.2221-10.222-18.708-13.821-28.418q-0.9438-2.5435 0.6239-0.32794 8.8462 12.525 18.084 25.699c2.4076 3.4313 4.7671 7.3345 7.1666 10.894q1.1757 1.7516-0.6159 0.64787-5.2549-3.2313-10.166-6.9746a4.4871 4.4871 0 0 1-1.2718-1.5197z" fill="#fff"/><path d="m770.7 299.37-32.753 81.607q-0.432 1.0718-0.9918 0.064-0.272-0.4959-0.176-1.6077 3.9112-45.279 7.7904-90.566 0.288-3.3033 0.8158-6.5107a0.34393 0.35193 21.2 0 1 0.5359-0.23995l24.523 16.421a0.68786 0.69586 27.8 0 1 0.2559 0.83183z" fill="#fff"/><path d="m724.84 406.73q-2.1675-0.87182-3.6792-1.8236-37.52-23.611-75.145-47.062-1.5517-0.9678-2.4076-2.1356-0.3439-0.47991 0.12-0.84783 43.103-33.601 84.711-65.955c1.9836-1.5437 4.3751-3.0314 6.4627-4.6311a0.45591 0.45591 0 0 1 0.7358 0.39992q-4.663 50.646-8.4303 101-0.7838 10.398-1.5756 20.572a0.57588 0.57588 0 0 1-0.7919 0.4879z" fill="#fff"/><path d="m627.33 360.53-28.77 66.93a1.3677 1.3597 26 0 1-1.9196 0.65587q-0.9518-0.53589-1.9116-1.7676c-22.084-28.474-44.327-56.764-66.123-85.479a0.23995 0.23995 0 0 1 0.15997-0.38392q1.3917-0.18396 2.8474 0.10398 47.758 9.3421 95.269 19.076a0.62387 0.63187 17.3 0 1 0.44791 0.86383z" fill="#fff"/><path d="m609.28 426.36q12.853-29.85 25.643-59.732 0.5599-1.3037 1.9756-2.5675 0.304-0.27195 0.6479-0.056 37.872 23.267 75.433 47.03 1.2158 0.77585 1.7117 1.9836a0.35993 0.35993 0 0 1-0.264 0.4879l-107.23 19.316a0.31993 0.31194 5.5 0 1-0.35193-0.42391q1.1118-2.9594 2.4315-6.0388z" fill="#fff"/></g></g><style type="text/css">
  .st0{fill:#000000;}
</style><style type="text/css">
  .st0{fill:#000000;}
</style><style type="text/css">
  .st0{fill:#000000;}
</style></svg>
